<svg width="24" height="24" viewBox="0 0 24 24" fill="none" xmlns="http://www.w3.org/2000/svg">
<path d="M7.08 15.08C7.76 14.56 8.52 14.15 9.36 13.85C10.2 13.55 11.08 13.4 12 13.4C12.92 13.4 13.8 13.55 14.64 13.85C15.48 14.15 16.24 14.56 16.92 15.08C17.3867 14.5333 17.75 13.9133 18.01 13.22C18.27 12.5267 18.4 11.7867 18.4 11C18.4 9.22667 17.7767 7.71667 16.53 6.47C15.2833 5.22333 13.7733 4.6 12 4.6C10.2267 4.6 8.71667 5.22333 7.47 6.47C6.22333 7.71667 5.6 9.22667 5.6 11C5.6 11.7867 5.73 12.5267 5.99 13.22C6.25 13.9133 6.61333 14.5333 7.08 15.08ZM12 11.8C11.2133 11.8 10.55 11.53 10.01 10.99C9.47 10.45 9.2 9.78667 9.2 9C9.2 8.21333 9.47 7.55 10.01 7.01C10.55 6.47 11.2133 6.2 12 6.2C12.7867 6.2 13.45 6.47 13.99 7.01C14.53 7.55 14.8 8.21333 14.8 9C14.8 9.78667 14.53 10.45 13.99 10.99C13.45 11.53 12.7867 11.8 12 11.8ZM12 19C10.8933 19 9.85333 18.79 8.88 18.37C7.90667 17.95 7.06 17.38 6.34 16.66C5.62 15.94 5.05 15.0933 4.63 14.12C4.21 13.1467 4 12.1067 4 11C4 9.89333 4.21 8.85333 4.63 7.88C5.05 6.90667 5.62 6.06 6.34 5.34C7.06 4.62 7.90667 4.05 8.88 3.63C9.85333 3.21 10.8933 3 12 3C13.1067 3 14.1467 3.21 15.12 3.63C16.0933 4.05 16.94 4.62 17.66 5.34C18.38 6.06 18.95 6.90667 19.37 7.88C19.79 8.85333 20 9.89333 20 11C20 12.1067 19.79 13.1467 19.37 14.12C18.95 15.0933 18.38 15.94 17.66 16.66C16.94 17.38 16.0933 17.95 15.12 18.37C14.1467 18.79 13.1067 19 12 19ZM12 17.4C12.7067 17.4 13.3733 17.2967 14 17.09C14.6267 16.8833 15.2 16.5867 15.72 16.2C15.2 15.8133 14.6267 15.5167 14 15.31C13.3733 15.1033 12.7067 15 12 15C11.2933 15 10.6267 15.1033 10 15.31C9.37333 15.5167 8.8 15.8133 8.28 16.2C8.8 16.5867 9.37333 16.8833 10 17.09C10.6267 17.2967 11.2933 17.4 12 17.4ZM12 10.2C12.3467 10.2 12.6333 10.0867 12.86 9.86C13.0867 9.63333 13.2 9.34667 13.2 9C13.2 8.65333 13.0867 8.36667 12.86 8.14C12.6333 7.91333 12.3467 7.8 12 7.8C11.6533 7.8 11.3667 7.91333 11.14 8.14C10.9133 8.36667 10.8 8.65333 10.8 9C10.8 9.34667 10.9133 9.63333 11.14 9.86C11.3667 10.0867 11.6533 10.2 12 10.2Z" fill="#E3E3E3"/>
</svg>
