<svg width="24" height="24" viewBox="0 0 24 24" fill="none" xmlns="http://www.w3.org/2000/svg">
<path d="M6 19C5.45 19 4.97917 18.8042 4.5875 18.4125C4.19583 18.0208 4 17.55 4 17C4 16.45 4.19583 15.9792 4.5875 15.5875C4.97917 15.1958 5.45 15 6 15C6.55 15 7.02083 15.1958 7.4125 15.5875C7.80417 15.9792 8 16.45 8 17C8 17.55 7.80417 18.0208 7.4125 18.4125C7.02083 18.8042 6.55 19 6 19ZM12 19C11.45 19 10.9792 18.8042 10.5875 18.4125C10.1958 18.0208 10 17.55 10 17C10 16.45 10.1958 15.9792 10.5875 15.5875C10.9792 15.1958 11.45 15 12 15C12.55 15 13.0208 15.1958 13.4125 15.5875C13.8042 15.9792 14 16.45 14 17C14 17.55 13.8042 18.0208 13.4125 18.4125C13.0208 18.8042 12.55 19 12 19ZM18 19C17.45 19 16.9792 18.8042 16.5875 18.4125C16.1958 18.0208 16 17.55 16 17C16 16.45 16.1958 15.9792 16.5875 15.5875C16.9792 15.1958 17.45 15 18 15C18.55 15 19.0208 15.1958 19.4125 15.5875C19.8042 15.9792 20 16.45 20 17C20 17.55 19.8042 18.0208 19.4125 18.4125C19.0208 18.8042 18.55 19 18 19ZM6 13C5.45 13 4.97917 12.8042 4.5875 12.4125C4.19583 12.0208 4 11.55 4 11C4 10.45 4.19583 9.97917 4.5875 9.5875C4.97917 9.19583 5.45 9 6 9C6.55 9 7.02083 9.19583 7.4125 9.5875C7.80417 9.97917 8 10.45 8 11C8 11.55 7.80417 12.0208 7.4125 12.4125C7.02083 12.8042 6.55 13 6 13ZM12 13C11.45 13 10.9792 12.8042 10.5875 12.4125C10.1958 12.0208 10 11.55 10 11C10 10.45 10.1958 9.97917 10.5875 9.5875C10.9792 9.19583 11.45 9 12 9C12.55 9 13.0208 9.19583 13.4125 9.5875C13.8042 9.97917 14 10.45 14 11C14 11.55 13.8042 12.0208 13.4125 12.4125C13.0208 12.8042 12.55 13 12 13ZM18 13C17.45 13 16.9792 12.8042 16.5875 12.4125C16.1958 12.0208 16 11.55 16 11C16 10.45 16.1958 9.97917 16.5875 9.5875C16.9792 9.19583 17.45 9 18 9C18.55 9 19.0208 9.19583 19.4125 9.5875C19.8042 9.97917 20 10.45 20 11C20 11.55 19.8042 12.0208 19.4125 12.4125C19.0208 12.8042 18.55 13 18 13ZM6 7C5.45 7 4.97917 6.80417 4.5875 6.4125C4.19583 6.02083 4 5.55 4 5C4 4.45 4.19583 3.97917 4.5875 3.5875C4.97917 3.19583 5.45 3 6 3C6.55 3 7.02083 3.19583 7.4125 3.5875C7.80417 3.97917 8 4.45 8 5C8 5.55 7.80417 6.02083 7.4125 6.4125C7.02083 6.80417 6.55 7 6 7ZM12 7C11.45 7 10.9792 6.80417 10.5875 6.4125C10.1958 6.02083 10 5.55 10 5C10 4.45 10.1958 3.97917 10.5875 3.5875C10.9792 3.19583 11.45 3 12 3C12.55 3 13.0208 3.19583 13.4125 3.5875C13.8042 3.97917 14 4.45 14 5C14 5.55 13.8042 6.02083 13.4125 6.4125C13.0208 6.80417 12.55 7 12 7ZM18 7C17.45 7 16.9792 6.80417 16.5875 6.4125C16.1958 6.02083 16 5.55 16 5C16 4.45 16.1958 3.97917 16.5875 3.5875C16.9792 3.19583 17.45 3 18 3C18.55 3 19.0208 3.19583 19.4125 3.5875C19.8042 3.97917 20 4.45 20 5C20 5.55 19.8042 6.02083 19.4125 6.4125C19.0208 6.80417 18.55 7 18 7Z" fill="#E3E3E3"/>
</svg>
