<svg width="24" height="24" viewBox="0 0 24 24" fill="none" xmlns="http://www.w3.org/2000/svg">
<path d="M12.8333 17.7333L14 16.4889L11.3333 13.6444V9.55556H9.66667V14.3556L12.8333 17.7333ZM18 21.5556V19.6C19.0278 19.0815 19.8403 18.3185 20.4375 17.3111C21.0347 16.3037 21.3333 15.2 21.3333 14C21.3333 12.8 21.0347 11.6963 20.4375 10.6889C19.8403 9.68148 19.0278 8.91852 18 8.4V6.44444C19.5139 7.00741 20.7257 7.98148 21.6354 9.36667C22.5451 10.7519 23 12.2963 23 14C23 15.7037 22.5451 17.2481 21.6354 18.6333C20.7257 20.0185 19.5139 20.9926 18 21.5556ZM10.5 22C9.45833 22 8.48264 21.7889 7.57292 21.3667C6.66319 20.9444 5.87153 20.3741 5.19792 19.6556C4.52431 18.937 3.98958 18.0926 3.59375 17.1222C3.19792 16.1519 3 15.1111 3 14C3 12.8889 3.19792 11.8481 3.59375 10.8778C3.98958 9.90741 4.52431 9.06296 5.19792 8.34444C5.87153 7.62593 6.66319 7.05556 7.57292 6.63333C8.48264 6.21111 9.45833 6 10.5 6C11.5417 6 12.5174 6.21111 13.4271 6.63333C14.3368 7.05556 15.1285 7.62593 15.8021 8.34444C16.4757 9.06296 17.0104 9.90741 17.4062 10.8778C17.8021 11.8481 18 12.8889 18 14C18 15.1111 17.8021 16.1519 17.4062 17.1222C17.0104 18.0926 16.4757 18.937 15.8021 19.6556C15.1285 20.3741 14.3368 20.9444 13.4271 21.3667C12.5174 21.7889 11.5417 22 10.5 22ZM10.5 20.2222C12.125 20.2222 13.5035 19.6185 14.6354 18.4111C15.7674 17.2037 16.3333 15.7333 16.3333 14C16.3333 12.2667 15.7674 10.7963 14.6354 9.58889C13.5035 8.38148 12.125 7.77778 10.5 7.77778C8.875 7.77778 7.49653 8.38148 6.36458 9.58889C5.23264 10.7963 4.66667 12.2667 4.66667 14C4.66667 15.7333 5.23264 17.2037 6.36458 18.4111C7.49653 19.6185 8.875 20.2222 10.5 20.2222Z" fill="#E3E3E3"/>
</svg>
