<svg width="24" height="24" viewBox="0 0 24 24" fill="none" xmlns="http://www.w3.org/2000/svg">
<path d="M13.64 17.76L14.76 16.64L11.8 13.68V10H10.2V14.32L13.64 17.76ZM11 22C9.89333 22 8.85333 21.79 7.88 21.37C6.90667 20.95 6.06 20.38 5.34 19.66C4.62 18.94 4.05 18.0933 3.63 17.12C3.21 16.1467 3 15.1067 3 14C3 12.8933 3.21 11.8533 3.63 10.88C4.05 9.90667 4.62 9.06 5.34 8.34C6.06 7.62 6.90667 7.05 7.88 6.63C8.85333 6.21 9.89333 6 11 6C12.1067 6 13.1467 6.21 14.12 6.63C15.0933 7.05 15.94 7.62 16.66 8.34C17.38 9.06 17.95 9.90667 18.37 10.88C18.79 11.8533 19 12.8933 19 14C19 15.1067 18.79 16.1467 18.37 17.12C17.95 18.0933 17.38 18.94 16.66 19.66C15.94 20.38 15.0933 20.95 14.12 21.37C13.1467 21.79 12.1067 22 11 22ZM11 20.4C12.7733 20.4 14.2833 19.7767 15.53 18.53C16.7767 17.2833 17.4 15.7733 17.4 14C17.4 12.2267 16.7767 10.7167 15.53 9.47C14.2833 8.22333 12.7733 7.6 11 7.6C9.22667 7.6 7.71667 8.22333 6.47 9.47C5.22333 10.7167 4.6 12.2267 4.6 14C4.6 15.7733 5.22333 17.2833 6.47 18.53C7.71667 19.7767 9.22667 20.4 11 20.4Z" fill="#E3E3E3"/>
</svg>
