<svg width="24" height="24" viewBox="0 0 24 24" fill="none" xmlns="http://www.w3.org/2000/svg">
<path d="M12 19C10.8933 19 9.85333 18.79 8.88 18.37C7.90667 17.95 7.06 17.38 6.34 16.66C5.62 15.94 5.05 15.0933 4.63 14.12C4.21 13.1467 4 12.1067 4 11C4 9.89333 4.21 8.85333 4.63 7.88C5.05 6.90667 5.62 6.06 6.34 5.34C7.06 4.62 7.90667 4.05 8.88 3.63C9.85333 3.21 10.8933 3 12 3C12.8667 3 13.6867 3.12667 14.46 3.38C15.2333 3.63333 15.9467 3.98667 16.6 4.44L15.44 5.62C14.9333 5.3 14.3933 5.05 13.82 4.87C13.2467 4.69 12.64 4.6 12 4.6C10.2267 4.6 8.71667 5.22333 7.47 6.47C6.22333 7.71667 5.6 9.22667 5.6 11C5.6 12.7733 6.22333 14.2833 7.47 15.53C8.71667 16.7767 10.2267 17.4 12 17.4C13.7733 17.4 15.2833 16.7767 16.53 15.53C17.7767 14.2833 18.4 12.7733 18.4 11C18.4 10.76 18.3867 10.52 18.36 10.28C18.3333 10.04 18.2933 9.80667 18.24 9.58L19.54 8.28C19.6867 8.70667 19.8 9.14667 19.88 9.6C19.96 10.0533 20 10.52 20 11C20 12.1067 19.79 13.1467 19.37 14.12C18.95 15.0933 18.38 15.94 17.66 16.66C16.94 17.38 16.0933 17.95 15.12 18.37C14.1467 18.79 13.1067 19 12 19ZM10.88 14.68L7.48 11.28L8.6 10.16L10.88 12.44L18.88 4.42L20 5.54L10.88 14.68Z" fill="#E3E3E3"/>
</svg>
