<svg width="24" height="24" viewBox="0 0 24 24" fill="none" xmlns="http://www.w3.org/2000/svg">
<path d="M11.96 15.8C12.24 15.8 12.4767 15.7033 12.67 15.51C12.8633 15.3167 12.96 15.08 12.96 14.8C12.96 14.52 12.8633 14.2833 12.67 14.09C12.4767 13.8967 12.24 13.8 11.96 13.8C11.68 13.8 11.4433 13.8967 11.25 14.09C11.0567 14.2833 10.96 14.52 10.96 14.8C10.96 15.08 11.0567 15.3167 11.25 15.51C11.4433 15.7033 11.68 15.8 11.96 15.8ZM11.24 12.72H12.72C12.72 12.28 12.77 11.9333 12.87 11.68C12.97 11.4267 13.2533 11.08 13.72 10.64C14.0667 10.2933 14.34 9.96333 14.54 9.65C14.74 9.33667 14.84 8.96 14.84 8.52C14.84 7.77333 14.5667 7.2 14.02 6.8C13.4733 6.4 12.8267 6.2 12.08 6.2C11.32 6.2 10.7033 6.4 10.23 6.8C9.75667 7.2 9.42667 7.68 9.24 8.24L10.56 8.76C10.6267 8.52 10.7767 8.26 11.01 7.98C11.2433 7.7 11.6 7.56 12.08 7.56C12.5067 7.56 12.8267 7.67667 13.04 7.91C13.2533 8.14333 13.36 8.4 13.36 8.68C13.36 8.94667 13.28 9.19667 13.12 9.43C12.96 9.66333 12.76 9.88 12.52 10.08C11.9333 10.6 11.5733 10.9933 11.44 11.26C11.3067 11.5267 11.24 12.0133 11.24 12.72ZM12 19C10.8933 19 9.85333 18.79 8.88 18.37C7.90667 17.95 7.06 17.38 6.34 16.66C5.62 15.94 5.05 15.0933 4.63 14.12C4.21 13.1467 4 12.1067 4 11C4 9.89333 4.21 8.85333 4.63 7.88C5.05 6.90667 5.62 6.06 6.34 5.34C7.06 4.62 7.90667 4.05 8.88 3.63C9.85333 3.21 10.8933 3 12 3C13.1067 3 14.1467 3.21 15.12 3.63C16.0933 4.05 16.94 4.62 17.66 5.34C18.38 6.06 18.95 6.90667 19.37 7.88C19.79 8.85333 20 9.89333 20 11C20 12.1067 19.79 13.1467 19.37 14.12C18.95 15.0933 18.38 15.94 17.66 16.66C16.94 17.38 16.0933 17.95 15.12 18.37C14.1467 18.79 13.1067 19 12 19ZM12 17.4C13.7867 17.4 15.3 16.78 16.54 15.54C17.78 14.3 18.4 12.7867 18.4 11C18.4 9.21333 17.78 7.7 16.54 6.46C15.3 5.22 13.7867 4.6 12 4.6C10.2133 4.6 8.7 5.22 7.46 6.46C6.22 7.7 5.6 9.21333 5.6 11C5.6 12.7867 6.22 14.3 7.46 15.54C8.7 16.78 10.2133 17.4 12 17.4Z" fill="#E3E3E3"/>
</svg>
