<svg width="24" height="24" viewBox="0 0 24 24" fill="none" xmlns="http://www.w3.org/2000/svg">
<path d="M11 22C8.95556 22 7.17407 21.3222 5.65556 19.9667C4.13704 18.6111 3.26667 16.9185 3.04444 14.8889H4.86667C5.07407 16.4296 5.75926 17.7037 6.92222 18.7111C8.08519 19.7185 9.44444 20.2222 11 20.2222C12.7333 20.2222 14.2037 19.6185 15.4111 18.4111C16.6185 17.2037 17.2222 15.7333 17.2222 14C17.2222 12.2667 16.6185 10.7963 15.4111 9.58889C14.2037 8.38148 12.7333 7.77778 11 7.77778C9.97778 7.77778 9.02222 8.01481 8.13333 8.48889C7.24444 8.96296 6.4963 9.61481 5.88889 10.4444H8.33333V12.2222H3V6.88889H4.77778V8.97778C5.53333 8.02963 6.45556 7.2963 7.54444 6.77778C8.63333 6.25926 9.78519 6 11 6C12.1111 6 13.1519 6.21111 14.1222 6.63333C15.0926 7.05556 15.937 7.62593 16.6556 8.34444C17.3741 9.06296 17.9444 9.90741 18.3667 10.8778C18.7889 11.8481 19 12.8889 19 14C19 15.1111 18.7889 16.1519 18.3667 17.1222C17.9444 18.0926 17.3741 18.937 16.6556 19.6556C15.937 20.3741 15.0926 20.9444 14.1222 21.3667C13.1519 21.7889 12.1111 22 11 22ZM13.4889 17.7333L10.1111 14.3556V9.55556H11.8889V13.6444L14.7333 16.4889L13.4889 17.7333Z" fill="#E3E3E3"/>
</svg>
