<svg width="24" height="24" viewBox="0 0 24 24" fill="none" xmlns="http://www.w3.org/2000/svg">
<path d="M11.2 15H12.8V10.2H11.2V15ZM12 8.6C12.2267 8.6 12.4167 8.52333 12.57 8.37C12.7233 8.21667 12.8 8.02667 12.8 7.8C12.8 7.57333 12.7233 7.38333 12.57 7.23C12.4167 7.07667 12.2267 7 12 7C11.7733 7 11.5833 7.07667 11.43 7.23C11.2767 7.38333 11.2 7.57333 11.2 7.8C11.2 8.02667 11.2767 8.21667 11.43 8.37C11.5833 8.52333 11.7733 8.6 12 8.6ZM12 19C10.8933 19 9.85333 18.79 8.88 18.37C7.90667 17.95 7.06 17.38 6.34 16.66C5.62 15.94 5.05 15.0933 4.63 14.12C4.21 13.1467 4 12.1067 4 11C4 9.89333 4.21 8.85333 4.63 7.88C5.05 6.90667 5.62 6.06 6.34 5.34C7.06 4.62 7.90667 4.05 8.88 3.63C9.85333 3.21 10.8933 3 12 3C13.1067 3 14.1467 3.21 15.12 3.63C16.0933 4.05 16.94 4.62 17.66 5.34C18.38 6.06 18.95 6.90667 19.37 7.88C19.79 8.85333 20 9.89333 20 11C20 12.1067 19.79 13.1467 19.37 14.12C18.95 15.0933 18.38 15.94 17.66 16.66C16.94 17.38 16.0933 17.95 15.12 18.37C14.1467 18.79 13.1067 19 12 19ZM12 17.4C13.7867 17.4 15.3 16.78 16.54 15.54C17.78 14.3 18.4 12.7867 18.4 11C18.4 9.21333 17.78 7.7 16.54 6.46C15.3 5.22 13.7867 4.6 12 4.6C10.2133 4.6 8.7 5.22 7.46 6.46C6.22 7.7 5.6 9.21333 5.6 11C5.6 12.7867 6.22 14.3 7.46 15.54C8.7 16.78 10.2133 17.4 12 17.4Z" fill="#E3E3E3"/>
</svg>
