<svg width="24" height="24" viewBox="0 0 24 24" fill="none" xmlns="http://www.w3.org/2000/svg">
<path d="M12 19C10.9067 19 9.87333 18.79 8.9 18.37C7.92667 17.95 7.07667 17.3767 6.35 16.65C5.62333 15.9233 5.05 15.0733 4.63 14.1C4.21 13.1267 4 12.0933 4 11C4 9.89333 4.21 8.85667 4.63 7.89C5.05 6.92333 5.62333 6.07667 6.35 5.35C7.07667 4.62333 7.92667 4.05 8.9 3.63C9.87333 3.21 10.9067 3 12 3C13.1067 3 14.1433 3.21 15.11 3.63C16.0767 4.05 16.9233 4.62333 17.65 5.35C18.3767 6.07667 18.95 6.92333 19.37 7.89C19.79 8.85667 20 9.89333 20 11C20 12.0933 19.79 13.1267 19.37 14.1C18.95 15.0733 18.3767 15.9233 17.65 16.65C16.9233 17.3767 16.0767 17.95 15.11 18.37C14.1433 18.79 13.1067 19 12 19ZM12 17.36C12.3467 16.88 12.6467 16.38 12.9 15.86C13.1533 15.34 13.36 14.7867 13.52 14.2H10.48C10.64 14.7867 10.8467 15.34 11.1 15.86C11.3533 16.38 11.6533 16.88 12 17.36ZM9.92 17.04C9.68 16.6 9.47 16.1433 9.29 15.67C9.11 15.1967 8.96 14.7067 8.84 14.2H6.48C6.86667 14.8667 7.35 15.4467 7.93 15.94C8.51 16.4333 9.17333 16.8 9.92 17.04ZM14.08 17.04C14.8267 16.8 15.49 16.4333 16.07 15.94C16.65 15.4467 17.1333 14.8667 17.52 14.2H15.16C15.04 14.7067 14.89 15.1967 14.71 15.67C14.53 16.1433 14.32 16.6 14.08 17.04ZM5.8 12.6H8.52C8.48 12.3333 8.45 12.07 8.43 11.81C8.41 11.55 8.4 11.28 8.4 11C8.4 10.72 8.41 10.45 8.43 10.19C8.45 9.93 8.48 9.66667 8.52 9.4H5.8C5.73333 9.66667 5.68333 9.93 5.65 10.19C5.61667 10.45 5.6 10.72 5.6 11C5.6 11.28 5.61667 11.55 5.65 11.81C5.68333 12.07 5.73333 12.3333 5.8 12.6ZM10.12 12.6H13.88C13.92 12.3333 13.95 12.07 13.97 11.81C13.99 11.55 14 11.28 14 11C14 10.72 13.99 10.45 13.97 10.19C13.95 9.93 13.92 9.66667 13.88 9.4H10.12C10.08 9.66667 10.05 9.93 10.03 10.19C10.01 10.45 10 10.72 10 11C10 11.28 10.01 11.55 10.03 11.81C10.05 12.07 10.08 12.3333 10.12 12.6ZM15.48 12.6H18.2C18.2667 12.3333 18.3167 12.07 18.35 11.81C18.3833 11.55 18.4 11.28 18.4 11C18.4 10.72 18.3833 10.45 18.35 10.19C18.3167 9.93 18.2667 9.66667 18.2 9.4H15.48C15.52 9.66667 15.55 9.93 15.57 10.19C15.59 10.45 15.6 10.72 15.6 11C15.6 11.28 15.59 11.55 15.57 11.81C15.55 12.07 15.52 12.3333 15.48 12.6ZM15.16 7.8H17.52C17.1333 7.13333 16.65 6.55333 16.07 6.06C15.49 5.56667 14.8267 5.2 14.08 4.96C14.32 5.4 14.53 5.85667 14.71 6.33C14.89 6.80333 15.04 7.29333 15.16 7.8ZM10.48 7.8H13.52C13.36 7.21333 13.1533 6.66 12.9 6.14C12.6467 5.62 12.3467 5.12 12 4.64C11.6533 5.12 11.3533 5.62 11.1 6.14C10.8467 6.66 10.64 7.21333 10.48 7.8ZM6.48 7.8H8.84C8.96 7.29333 9.11 6.80333 9.29 6.33C9.47 5.85667 9.68 5.4 9.92 4.96C9.17333 5.2 8.51 5.56667 7.93 6.06C7.35 6.55333 6.86667 7.13333 6.48 7.8Z" fill="#E3E3E3"/>
</svg>
