<svg width="24" height="24" viewBox="0 0 24 24" fill="none" xmlns="http://www.w3.org/2000/svg">
<path d="M10.4 12.6H13.6V11H10.4V12.6ZM10.4 10.2H16.8V8.6H10.4V10.2ZM10.4 7.8H16.8V6.2H10.4V7.8ZM8.8 15.8C8.36 15.8 7.98333 15.6433 7.67 15.33C7.35667 15.0167 7.2 14.64 7.2 14.2V4.6C7.2 4.16 7.35667 3.78333 7.67 3.47C7.98333 3.15667 8.36 3 8.8 3H18.4C18.84 3 19.2167 3.15667 19.53 3.47C19.8433 3.78333 20 4.16 20 4.6V14.2C20 14.64 19.8433 15.0167 19.53 15.33C19.2167 15.6433 18.84 15.8 18.4 15.8H8.8ZM8.8 14.2H18.4V4.6H8.8V14.2ZM5.6 19C5.16 19 4.78333 18.8433 4.47 18.53C4.15667 18.2167 4 17.84 4 17.4V6.2H5.6V17.4H16.8V19H5.6Z" fill="#E3E3E3"/>
</svg>
