<svg width="24" height="24" viewBox="0 0 24 24" fill="none" xmlns="http://www.w3.org/2000/svg">
<path d="M12 13.1053C11.0476 13.1053 10.2381 12.8596 9.57143 12.3684C8.90476 11.8772 8.57143 11.2807 8.57143 10.5789V5.52632C8.57143 4.82456 8.90476 4.22807 9.57143 3.73684C10.2381 3.24561 11.0476 3 12 3C12.9524 3 13.7619 3.24561 14.4286 3.73684C15.0952 4.22807 15.4286 4.82456 15.4286 5.52632V10.5789C15.4286 11.2807 15.0952 11.8772 14.4286 12.3684C13.7619 12.8596 12.9524 13.1053 12 13.1053ZM10.8571 19V16.4105C8.87619 16.214 7.2381 15.5614 5.94286 14.4526C4.64762 13.3439 4 12.0526 4 10.5789H6.28571C6.28571 11.7439 6.84286 12.7368 7.95714 13.5579C9.07143 14.3789 10.419 14.7895 12 14.7895C13.581 14.7895 14.9286 14.3789 16.0429 13.5579C17.1571 12.7368 17.7143 11.7439 17.7143 10.5789H20C20 12.0526 19.3524 13.3439 18.0571 14.4526C16.7619 15.5614 15.1238 16.214 13.1429 16.4105V19H10.8571ZM12 11.4211C12.3238 11.4211 12.5952 11.3404 12.8143 11.1789C13.0333 11.0175 13.1429 10.8175 13.1429 10.5789V5.52632C13.1429 5.28772 13.0333 5.08772 12.8143 4.92632C12.5952 4.76491 12.3238 4.68421 12 4.68421C11.6762 4.68421 11.4048 4.76491 11.1857 4.92632C10.9667 5.08772 10.8571 5.28772 10.8571 5.52632V10.5789C10.8571 10.8175 10.9667 11.0175 11.1857 11.1789C11.4048 11.3404 11.6762 11.4211 12 11.4211Z" fill="#E3E3E3"/>
</svg>
