<svg width="24" height="24" viewBox="0 0 24 24" fill="none" xmlns="http://www.w3.org/2000/svg">
<path d="M5.77778 19C5.28889 19 4.87037 18.8433 4.52222 18.53C4.17407 18.2167 4 17.84 4 17.4V6.2C4 5.76 4.17407 5.38333 4.52222 5.07C4.87037 4.75667 5.28889 4.6 5.77778 4.6H9.51111C9.7037 4.12 10.0259 3.73333 10.4778 3.44C10.9296 3.14667 11.437 3 12 3C12.563 3 13.0704 3.14667 13.5222 3.44C13.9741 3.73333 14.2963 4.12 14.4889 4.6H18.2222C18.7111 4.6 19.1296 4.75667 19.4778 5.07C19.8259 5.38333 20 5.76 20 6.2V17.4C20 17.84 19.8259 18.2167 19.4778 18.53C19.1296 18.8433 18.7111 19 18.2222 19H5.77778ZM5.77778 17.4H18.2222V6.2H5.77778V17.4ZM7.55556 15.8H13.7778V14.2H7.55556V15.8ZM7.55556 12.6H16.4444V11H7.55556V12.6ZM7.55556 9.4H16.4444V7.8H7.55556V9.4ZM12 5.6C12.1926 5.6 12.3519 5.54333 12.4778 5.43C12.6037 5.31667 12.6667 5.17333 12.6667 5C12.6667 4.82667 12.6037 4.68333 12.4778 4.57C12.3519 4.45667 12.1926 4.4 12 4.4C11.8074 4.4 11.6481 4.45667 11.5222 4.57C11.3963 4.68333 11.3333 4.82667 11.3333 5C11.3333 5.17333 11.3963 5.31667 11.5222 5.43C11.6481 5.54333 11.8074 5.6 12 5.6Z" fill="#E3E3E3"/>
</svg>
