<svg width="24" height="24" viewBox="0 0 24 24" fill="none" xmlns="http://www.w3.org/2000/svg">
<path d="M18.7556 19L13.1556 13.4C12.7111 13.7556 12.2 14.037 11.6222 14.2444C11.0444 14.4519 10.4296 14.5556 9.77778 14.5556C8.16296 14.5556 6.7963 13.9963 5.67778 12.8778C4.55926 11.7593 4 10.3926 4 8.77778C4 7.16296 4.55926 5.7963 5.67778 4.67778C6.7963 3.55926 8.16296 3 9.77778 3C11.3926 3 12.7593 3.55926 13.8778 4.67778C14.9963 5.7963 15.5556 7.16296 15.5556 8.77778C15.5556 9.42963 15.4519 10.0444 15.2444 10.6222C15.037 11.2 14.7556 11.7111 14.4 12.1556L20 17.7556L18.7556 19ZM9.77778 12.7778C10.8889 12.7778 11.8333 12.3889 12.6111 11.6111C13.3889 10.8333 13.7778 9.88889 13.7778 8.77778C13.7778 7.66667 13.3889 6.72222 12.6111 5.94444C11.8333 5.16667 10.8889 4.77778 9.77778 4.77778C8.66667 4.77778 7.72222 5.16667 6.94444 5.94444C6.16667 6.72222 5.77778 7.66667 5.77778 8.77778C5.77778 9.88889 6.16667 10.8333 6.94444 11.6111C7.72222 12.3889 8.66667 12.7778 9.77778 12.7778Z" fill="#E3E3E3"/>
</svg>
