<svg width="24" height="24" viewBox="0 0 24 24" fill="none" xmlns="http://www.w3.org/2000/svg">
<path d="M18.8993 19L16.5799 16.6834V18.4307H15.0074V13.9939H19.4496V15.5644H17.6806L20 17.881L18.8993 19ZM11.8624 18.7055C10.7748 18.7055 9.75266 18.4994 8.79607 18.0871C7.83948 17.6748 7.00737 17.1153 6.29975 16.4086C5.59214 15.7018 5.03194 14.8708 4.61916 13.9153C4.20639 12.9599 4 11.9391 4 10.8528C4 9.76646 4.20639 8.7456 4.61916 7.79018C5.03194 6.83476 5.59214 6.00368 6.29975 5.29693C7.00737 4.59018 7.83948 4.03067 8.79607 3.6184C9.75266 3.20613 10.7748 3 11.8624 3C12.95 3 13.9722 3.20613 14.9287 3.6184C15.8853 4.03067 16.7174 4.59018 17.4251 5.29693C18.1327 6.00368 18.6929 6.83476 19.1057 7.79018C19.5184 8.7456 19.7248 9.76646 19.7248 10.8528C19.7248 11.1145 19.7117 11.3763 19.6855 11.638C19.6593 11.8998 19.62 12.1616 19.5676 12.4233H17.9558C18.0213 12.1616 18.0704 11.8998 18.1032 11.638C18.136 11.3763 18.1523 11.1145 18.1523 10.8528C18.1523 10.591 18.136 10.3292 18.1032 10.0675C18.0704 9.80573 18.0213 9.54397 17.9558 9.28221H15.2826C15.3219 9.54397 15.3514 9.80573 15.371 10.0675C15.3907 10.3292 15.4005 10.591 15.4005 10.8528C15.4005 11.1145 15.3907 11.3763 15.371 11.638C15.3514 11.8998 15.3219 12.1616 15.2826 12.4233H13.7101C13.7494 12.1616 13.7789 11.8998 13.7985 11.638C13.8182 11.3763 13.828 11.1145 13.828 10.8528C13.828 10.591 13.8182 10.3292 13.7985 10.0675C13.7789 9.80573 13.7494 9.54397 13.7101 9.28221H10.0147C9.97543 9.54397 9.94595 9.80573 9.92629 10.0675C9.90663 10.3292 9.89681 10.591 9.89681 10.8528C9.89681 11.1145 9.90663 11.3763 9.92629 11.638C9.94595 11.8998 9.97543 12.1616 10.0147 12.4233H12.6486V13.9939H10.3686C10.5258 14.5566 10.7289 15.0965 10.9779 15.6135C11.2269 16.1305 11.5217 16.6245 11.8624 17.0957C12.1245 17.0957 12.3866 17.0793 12.6486 17.0466C12.9107 17.0139 13.1728 16.9845 13.4349 16.9583V18.5681C13.1728 18.5943 12.9107 18.6237 12.6486 18.6564C12.3866 18.6892 12.1245 18.7055 11.8624 18.7055ZM5.76904 12.4233H8.44226C8.40295 12.1616 8.37346 11.8998 8.35381 11.638C8.33415 11.3763 8.32432 11.1145 8.32432 10.8528C8.32432 10.591 8.33415 10.3292 8.35381 10.0675C8.37346 9.80573 8.40295 9.54397 8.44226 9.28221H5.76904C5.70352 9.54397 5.65438 9.80573 5.62162 10.0675C5.58886 10.3292 5.57248 10.591 5.57248 10.8528C5.57248 11.1145 5.58886 11.3763 5.62162 11.638C5.65438 11.8998 5.70352 12.1616 5.76904 12.4233ZM6.43735 7.71166H8.75676C8.87469 7.2274 9.02211 6.75297 9.19902 6.28834C9.37592 5.82372 9.58231 5.36892 9.81818 4.92393C9.09746 5.15951 8.44881 5.51616 7.87224 5.99387C7.29566 6.47157 6.81736 7.04417 6.43735 7.71166ZM9.81818 16.7816C9.58231 16.3366 9.37592 15.8818 9.19902 15.4172C9.02211 14.9526 8.87469 14.4781 8.75676 13.9939H6.43735C6.81736 14.6613 7.29566 15.2339 7.87224 15.7117C8.44881 16.1894 9.09746 16.546 9.81818 16.7816ZM10.3686 7.71166H13.3563C13.199 7.14888 12.9959 6.609 12.7469 6.09202C12.498 5.57505 12.2031 5.08098 11.8624 4.60982C11.5217 5.08098 11.2269 5.57505 10.9779 6.09202C10.7289 6.609 10.5258 7.14888 10.3686 7.71166ZM14.9681 7.71166H17.2875C16.9075 7.04417 16.4292 6.47157 15.8526 5.99387C15.276 5.51616 14.6274 5.15951 13.9066 4.92393C14.1425 5.36892 14.3489 5.82372 14.5258 6.28834C14.7027 6.75297 14.8501 7.2274 14.9681 7.71166Z" fill="#E3E3E3"/>
</svg>
