<svg width="24" height="24" viewBox="0 0 24 24" fill="none" xmlns="http://www.w3.org/2000/svg">
<path d="M5.6 19C5.16 19 4.78333 18.8042 4.47 18.4125C4.15667 18.0208 4 17.55 4 17V5C4 4.45 4.15667 3.97917 4.47 3.5875C4.78333 3.19583 5.16 3 5.6 3H18.4C18.84 3 19.2167 3.19583 19.53 3.5875C19.8433 3.97917 20 4.45 20 5V17C20 17.55 19.8433 18.0208 19.53 18.4125C19.2167 18.8042 18.84 19 18.4 19H5.6ZM5.6 17H18.4V7H5.6V17ZM8.4 16L7.28 14.6L9.34 12L7.26 9.4L8.4 8L11.6 12L8.4 16ZM12 16V14H16.8V16H12Z" fill="#E3E3E3"/>
</svg>
