<svg width="24" height="24" viewBox="0 0 24 24" fill="none" xmlns="http://www.w3.org/2000/svg">
<path d="M3 22V18.8H15.4444V22H3ZM3 15.6V12.4H15.4444V15.6H3ZM3 9.2V6H15.4444V9.2H3ZM18.1111 22C17.8593 22 17.6481 21.8467 17.4778 21.54C17.3074 21.2333 17.2222 20.8533 17.2222 20.4C17.2222 19.9467 17.3074 19.5667 17.4778 19.26C17.6481 18.9533 17.8593 18.8 18.1111 18.8C18.363 18.8 18.5741 18.9533 18.7444 19.26C18.9148 19.5667 19 19.9467 19 20.4C19 20.8533 18.9148 21.2333 18.7444 21.54C18.5741 21.8467 18.363 22 18.1111 22ZM18.1111 15.6C17.8593 15.6 17.6481 15.4467 17.4778 15.14C17.3074 14.8333 17.2222 14.4533 17.2222 14C17.2222 13.5467 17.3074 13.1667 17.4778 12.86C17.6481 12.5533 17.8593 12.4 18.1111 12.4C18.363 12.4 18.5741 12.5533 18.7444 12.86C18.9148 13.1667 19 13.5467 19 14C19 14.4533 18.9148 14.8333 18.7444 15.14C18.5741 15.4467 18.363 15.6 18.1111 15.6ZM18.1111 9.2C17.8593 9.2 17.6481 9.04667 17.4778 8.74C17.3074 8.43333 17.2222 8.05333 17.2222 7.6C17.2222 7.14667 17.3074 6.76667 17.4778 6.46C17.6481 6.15333 17.8593 6 18.1111 6C18.363 6 18.5741 6.15333 18.7444 6.46C18.9148 6.76667 19 7.14667 19 7.6C19 8.05333 18.9148 8.43333 18.7444 8.74C18.5741 9.04667 18.363 9.2 18.1111 9.2Z" fill="#E3E3E3"/>
</svg>
